# xmcd
#
# Track frame offsets:
#	182
#	13317
#	27937
#	43147
#	57577
#	68822
#	85625
#	98482
#	114607
#	131462
#
# Disc length: 1965 seconds
#
# Revision: 0
# Processed by: cddbd v1.4b42PL1 Copyright (c) Steve Scherf et al.
# Submitted via: EasyCDDAExtractor 4.5.0.2
#
DISCID=8107ab0a
DTITLE=Old Dogs - Volume Two
DYEAR=1998
DGENRE=Country
TTITLE0=Elvis Has Left The Building
TTITLE1=Wait Until Tomorrow
TTITLE2=I Never Expected
TTITLE3=Ever Lovin' Machine
TTITLE4=Slap My Face
TTITLE5=Old Man Blues
TTITLE6=Rough On The Livin'
TTITLE7=Alimony
TTITLE8=Still Gonna Die
TTITLE9=Time
EXTD=
EXTT0=
EXTT1=
EXTT2=
EXTT3=
EXTT4=
EXTT5=
EXTT6=
EXTT7=
EXTT8=
EXTT9=
PLAYORDER=
